{"title":"Screw My Wife Please - Adriana 3D(Anaglyph)","uid":6256803,"size":367097856,"categoryP":"porn","categoryS":"movie_clips","magnet":"?xt=urn:btih:b7abb9509f5805271f5d36f1acba815e37e61bd1&amp;dn=Screw+My+Wife+Please+-+Adriana+3D%28Anaglyph%29&amp;tr=udp%3A%2F%2Ftracker.openbittorrent.com%3A80&amp;tr=udp%3A%2F%2Fopen.demonii.com%3A1337&amp;tr=udp%3A%2F%2Ftracker.coppersurfer.tk%3A6969&amp;tr=udp%3A%2F%2Fexodus.desync.com%3A6969","seeders":2,"leechers":0,"uploader":null,"files":1,"time":1300613219,"description":"Required red green glasses to view this video\n\nSCREENSHOTS:\n &lt;a href=&quot;\nhttp://lnk.co/GXW4B&quot; rel=&quot;nofollow&quot; target=&quot;_NEW&quot;&gt;\nhttp://lnk.co/GXW4B&lt;/a&gt;\n\nVideo\nID                               : 0\nFormat                           : MPEG-4 Visual\nFormat profile                   : Advanced Simple@L5\nFormat settings, BVOP            : 1\nFormat settings, QPel            : No\nFormat settings, GMC             : No warppoints\nFormat settings, Matrix          : Custom\nCodec ID                         : XVID\nCodec ID/Hint                    : XviD\nDuration                         : 14mn 57s\nBit rate                         : 3 071 Kbps\nWidth                            : 720 pixels\nHeight                           : 416 pixels\nDisplay aspect ratio             : 16:9\nFrame rate                       : 29.970 fps\nColor space                      : YUV\nChroma subsampling               : 4:2:0\nBit depth                        : 8 bits\nScan type                        : Progressive\nCompression mode                 : Lossy\nBits/(Pixel*Frame)               : 0.342\nStream size                      : 329 MiB (94%)\nWriting library                  : XviD 1.2.0.dev47 (UTC 2006-11-01)\n\nAudio\nID                               : 1\nFormat                           : AC-3\nFormat/Info                      : Audio Coding 3\nMode extension                   : CM (complete main)\nCodec ID                         : 2000\nDuration                         : 14mn 57s\nBit rate mode                    : Constant\nBit rate                         : 192 Kbps\nChannel(s)                       : 2 channels\nChannel positions                : Front: L R\nSampling rate                    : 48.0 KHz\nBit depth                        : 16 bits\nCompression mode                 : Lossy\nStream size                      : 20.6 MiB (6%)\nLanguage                         : English","torrent":{"xt":"urn:btih:b7abb9509f5805271f5d36f1acba815e37e61bd1","amp;dn":"Screw+My+Wife+Please+-+Adriana+3D%28Anaglyph%29","amp;tr":["udp%3A%2F%2Ftracker.openbittorrent.com%3A80","udp%3A%2F%2Fopen.demonii.com%3A1337","udp%3A%2F%2Ftracker.coppersurfer.tk%3A6969","udp%3A%2F%2Fexodus.desync.com%3A6969"],"infoHash":"b7abb9509f5805271f5d36f1acba815e37e61bd1","infoHashBuffer":{"type":"Buffer","data":[183,171,185,80,159,88,5,39,31,93,54,241,172,186,129,94,55,230,27,209]},"announce":[],"urlList":[]}}